<?xml version="1.0" encoding="utf-8"?>
<!-- Generator: Adobe Illustrator 24.2.0, SVG Export Plug-In . SVG Version: 6.00 Build 0)  -->
<svg version="1.1"
	 id="svg1936" inkscape:version="0.91 r13725" sodipodi:docname="Amazon II.svg" xmlns:cc="http://creativecommons.org/ns#" xmlns:dc="http://purl.org/dc/elements/1.1/" xmlns:inkscape="http://www.inkscape.org/namespaces/inkscape" xmlns:rdf="http://www.w3.org/1999/02/22-rdf-syntax-ns#" xmlns:sodipodi="http://sodipodi.sourceforge.net/DTD/sodipodi-0.dtd" xmlns:svg="http://www.w3.org/2000/svg"
	 xmlns="http://www.w3.org/2000/svg" xmlns:xlink="http://www.w3.org/1999/xlink" x="0px" y="0px" viewBox="0 0 1527.6 370.6"
	 style="enable-background:new 0 0 1527.6 370.6;" xml:space="preserve">
<style type="text/css">
	.st0{fill-rule:evenodd;clip-rule:evenodd;fill:#527F2C;}
	.st1{fill-rule:evenodd;clip-rule:evenodd;fill:#FFFFFF;}
	.st2{fill:#FEFFFD;}
</style>
<sodipodi:namedview  bordercolor="#666666" borderopacity="1" gridtolerance="10" guidetolerance="10" id="namedview19" inkscape:current-layer="svg1936" inkscape:cx="426.12453" inkscape:cy="94.816171" inkscape:pageopacity="0" inkscape:pageshadow="2" inkscape:window-height="705" inkscape:window-maximized="1" inkscape:window-width="1366" inkscape:window-x="-8" inkscape:window-y="-8" inkscape:zoom="0.72245926" objecttolerance="10" pagecolor="#ffffff" showgrid="false">
	</sodipodi:namedview>
<path id="path8" inkscape:connector-curvature="0" class="st0" d="M1148,304.9c-58.1,42.8-142.3,65.7-214.9,65.7
	c-101.7,0-193.2-37.6-262.5-100.2c-5.4-4.9-0.6-11.6,6-7.8c74.7,43.5,167.2,69.6,262.6,69.6c64.4,0,135.2-13.3,200.3-41
	C1149.4,287.1,1157.6,297.7,1148,304.9"/>
<path id="path10" inkscape:connector-curvature="0" class="st0" d="M1172.1,277.2c-7.4-9.5-49.1-4.5-67.8-2.3
	c-5.7,0.7-6.6-4.3-1.4-7.8c33.2-23.4,87.7-16.6,94.1-8.8c6.4,7.9-1.7,62.5-32.9,88.6c-4.8,4-9.4,1.9-7.2-3.4
	C1163.9,326,1179.6,286.8,1172.1,277.2"/>
<path id="path12" inkscape:connector-curvature="0" class="st1" d="M1105.6,102.1V79.4c0-3.4,2.6-5.7,5.7-5.7H1213
	c3.3,0,5.9,2.4,5.9,5.7v19.5c0,3.3-2.8,7.5-7.7,14.3l-52.6,75.2c19.6-0.5,40.3,2.4,58,12.4c4,2.3,5.1,5.6,5.4,8.8v24.2
	c0,3.3-3.7,7.2-7.5,5.2c-31.3-16.4-72.9-18.2-107.5,0.2c-3.5,1.9-7.2-1.9-7.2-5.2v-23c0-3.7,0-10,3.7-15.6l61.1-87.6h-53.1
	C1108.2,107.8,1105.6,105.5,1105.6,102.1"/>
<path id="path14" inkscape:connector-curvature="0" class="st1" d="M734.5,243.9h-30.9c-3-0.2-5.3-2.4-5.5-5.3V79.8
	c0-3.2,2.7-5.7,6-5.7H733c3,0.1,5.4,2.4,5.6,5.3v20.8h0.6c7.5-20.1,21.7-29.4,40.7-29.4c19.4,0,31.5,9.4,40.2,29.4
	c7.5-20.1,24.5-29.4,42.7-29.4c13,0,27.2,5.4,35.8,17.4c9.8,13.4,7.8,32.8,7.8,49.8v100.2c0,3.2-2.7,5.7-6,5.7h-30.9
	c-3.1-0.2-5.6-2.7-5.6-5.7V154c0-6.7,0.6-23.4-0.9-29.8c-2.3-10.7-9.2-13.7-18.2-13.7c-7.5,0-15.3,5-18.5,13s-2.9,21.4-2.9,30.4
	v84.2c0,3.2-2.7,5.7-6,5.7h-30.8c-3.1-0.2-5.6-2.7-5.6-5.7v-84.2c0-17.7,2.9-43.8-19.1-43.8c-22.2,0-21.4,25.4-21.4,43.8v84.2
	C740.5,241.3,737.8,243.9,734.5,243.9"/>
<path id="path16" inkscape:connector-curvature="0" class="st1" d="M1306.6,70.7c45.9,0,70.8,39.4,70.8,89.6
	c0,48.4-27.5,86.9-70.8,86.9c-45.1,0-69.6-39.4-69.6-88.6C1236.9,109.2,1261.8,70.7,1306.6,70.7 M1306.8,103.2
	c-22.8,0-24.2,31-24.2,50.4s-0.3,60.9,24,60.9c24,0,25.1-33.4,25.1-53.8c0-13.4-0.6-29.4-4.6-42.1
	C1323.6,107.5,1316.7,103.2,1306.8,103.2"/>
<path id="path18" inkscape:connector-curvature="0" class="st1" d="M1436.9,243.9h-30.8c-3.1-0.2-5.6-2.7-5.6-5.7V79.3
	c0.3-2.9,2.8-5.2,6-5.2h28.7c2.7,0.1,4.9,2,5.5,4.4v24.3h0.6c8.7-21.7,20.8-32.1,42.2-32.1c13.9,0,27.4,5,36.1,18.7
	c8.1,12.7,8.1,34.1,8.1,49.4v100c-0.3,2.8-2.9,5-6,5h-31c-2.8-0.2-5.2-2.3-5.5-5v-86.2c0-17.4,2-42.8-19.4-42.8
	c-7.5,0-14.5,5-17.9,12.7c-4.4,9.7-4.9,19.4-4.9,30.1v85.5C1442.9,241.3,1440.2,243.9,1436.9,243.9"/>
<path id="path28" inkscape:connector-curvature="0" class="st1" d="M1024.5,168c0,12.1,0.3,22.1-5.8,32.8
	c-4.9,8.7-12.8,14.1-21.4,14.1c-11.9,0-18.8-9.1-18.8-22.4c0-26.4,23.6-31.2,46.1-31.2L1024.5,168 M1055.7,243.4c-2,1.8-5,2-7.3,0.7
	c-10.3-8.5-12.1-12.5-17.8-20.6c-17,17.3-29,22.5-51,22.5c-26.1,0-46.3-16.1-46.3-48.2c0-25.1,13.6-42.2,33-50.6
	c16.8-7.4,40.3-8.7,58.2-10.8v-4c0-7.4,0.6-16.1-3.8-22.4c-3.7-5.7-11-8.1-17.4-8.1c-11.8,0-22.3,6.1-24.9,18.6
	c-0.5,2.8-2.6,5.5-5.4,5.7l-30-3.2c-2.5-0.6-5.4-2.6-4.6-6.5c7-36.3,39.9-47.3,69.3-47.3c15.1,0,34.7,4,46.6,15.4
	c15.1,14.1,13.6,32.8,13.6,53.2V186c0,14.5,6,20.9,11.7,28.7c2,2.8,2.4,6.1-0.1,8.2C1073.2,228.3,1062,238.1,1055.7,243.4
	L1055.7,243.4"/>
<path id="path30" inkscape:connector-curvature="0" class="st1" d="M618.8,168c0,12.1,0.3,22.1-5.8,32.8
	c-4.9,8.7-12.7,14.1-21.4,14.1c-11.9,0-18.8-9.1-18.8-22.4c0-26.4,23.6-31.2,46-31.2V168 M650,243.4c-2,1.8-5,2-7.3,0.7
	c-10.3-8.5-12.1-12.5-17.8-20.6c-17,17.3-29,22.5-51,22.5c-26,0-46.3-16.1-46.3-48.2c0-25.1,13.6-42.2,33-50.6
	c16.8-7.4,40.3-8.7,58.2-10.8v-4c0-7.4,0.6-16.1-3.7-22.4c-3.8-5.7-11-8.1-17.4-8.1c-11.8,0-22.3,6.1-24.9,18.6
	c-0.5,2.8-2.6,5.5-5.4,5.7l-30-3.2c-2.5-0.6-5.3-2.6-4.6-6.5c6.9-36.3,39.8-47.3,69.2-47.3c15.1,0,34.7,4,46.6,15.4
	c15.1,14.1,13.6,32.8,13.6,53.2V186c0,14.5,6,20.9,11.7,28.7c2,2.8,2.4,6.1-0.1,8.2C667.5,228.3,656.3,238.1,650,243.4L650,243.4"/>
<g>
	<path class="st2" d="M312.4,90.6c-1.9-2.7-4.9-4.3-8.1-4.3H77.3c-0.4,0-0.9,0-1.3,0.1l-9.3-27.8c-1-2.9-3.1-5.2-5.8-6.3L13.8,33.2
		c-5.2-2.1-11,0.5-13.1,5.9c-2,5.4,0.5,11.4,5.7,13.5l42.7,17.3l52.3,155.8c-2.3,0.8-4.3,2.7-5.2,5.2l-15.1,43.4
		c-0.9,2.7-0.5,5.6,1,7.9c1.6,2.3,4.1,3.7,6.9,3.7h7.8c-4.8,5.5-7.8,12.8-7.8,20.8c0,17.2,13.6,31.3,30.3,31.3s30.3-14,30.3-31.3
		c0-8-3-15.3-7.8-20.8h66c-4.8,5.5-7.8,12.8-7.8,20.8c0,17.2,13.6,31.3,30.3,31.3c16.7,0,30.3-14,30.3-31.3c0-8-3-15.3-7.8-20.8h9.4
		c4.6,0,8.4-3.9,8.4-8.7s-3.8-8.7-8.4-8.7H101.1l9.4-26.9c1.2,0.5,2.5,0.8,3.9,0.8h147.9c4.4,0,8.3-2.9,9.6-7.2l42-135.5
		C314.8,96.7,314.3,93.3,312.4,90.6z M119.4,320.8c-7.4,0-13.4-6.2-13.4-13.9s6-13.9,13.4-13.9c7.4,0,13.4,6.2,13.4,13.9
		S126.8,320.8,119.4,320.8z M230.3,320.8c-7.4,0-13.4-6.2-13.4-13.9s6-13.9,13.4-13.9c7.4,0,13.4,6.2,13.4,13.9
		S237.7,320.8,230.3,320.8z M283.2,130.6h-51.5v-23.4h58.7L283.2,130.6z M268.3,178.3h-36.6v-26.9h45L268.3,178.3z M165,178.3v-26.9
		h46.5v26.9H165z M211.5,199.2v22.6H165v-22.6H211.5z M97.9,151.4h47v26.9h-37.9L97.9,151.4z M165,130.6v-23.4h46.5v23.4H165z
		 M144.8,107.1v23.4h-54L83,107.1H144.8z M113.9,199.2h30.9v22.6h-23.4L113.9,199.2z M231.7,221.8v-22.6h30.2l-7,22.6H231.7z"/>
</g>
</svg>
